<svg height="25" viewBox="0 0 134 28" xmlns="http://www.w3.org/2000/svg"><g clip-rule="evenodd" fill-rule="evenodd"><path d="m111.518 18.5222c.485-1.4132 1.085-4.6772-.903-5.1718-.678-.1684-1.611.0262-2.108.4642.001.7424.823.5874.825 1.3287-.508 1.508-2.646 4.3205-.816 5.9981 1.643 1.5076 4.338-.3049 5.168-.922.631-.4685 1.174-1.1044 1.689-1.1883.195 1.9279.936 3.2581 2.675 3.5015.515-.5614.075-1.1994.08-1.9207.008-1.1467.402-2.4717.657-3.5958.266-1.1885.945-2.4962.059-3.6028-1.035-.2293-1.472.637-1.928 1.1848-1.453 1.7405-3.033 3.0834-5.398 3.9241zm-47.5159-6.7161c-1.3752-.4919-3.698-.1752-5.7438-.2828-1.8324-.0975-4.221-.7663-4.1044.8097.1392 1.8658 3.8824 1.6696 5.8424 1.4836-1.3791 1.2763-3.0124 2.5137-4.5715 3.8105-1.3617 1.1321-3.8398 2.4735-3.1631 5.0193 1.5288.8671 3.3416-.0048 5.3585-.0808 3.7992-.14 7.0427.9962 10.6627.6812 1.4146-.1245 3.6319-.5969 3.5205-2.1371-.8026-.4714-1.4834.0227-2.2549.1038-3.7162.3947-7.2165-1.6793-11.4414-1.4065 1.088-1.1313 2.5202-2.2632 3.7677-3.4536 1.135-1.0858 2.8261-2.4539 2.1273-4.5473zm-11.2787-.9242c-.5578-.2553-.7939-.0841-1.0547.2327-1.6739 2.027-5.4844 5.1837-5.1404 8.4875.1243 1.1828.8043 2.6821 2.3255 2.1795.449-.3973.2682-.929.4777-1.4379 1.2184-2.979 4.7429-5.0691 3.3919-9.4618zm16.615 6.3677c1.0853-.9796 1.9687-1.9335 3.2011-3.0982.8309-.7879 3.0702-2.1435 2.4267-3.8264-.3493-.91218-1.9409-1.10179-3.0709-1.10326-1.6172-.00185-3.6768.49946-5.3275.44136-.5839-.02066-1.1116-.49522-1.5602-.13132-1.5051 3.14982 3.2511 2.94072 5.585 2.68352-1.6911 1.8262-4.6698 2.9426-6.1436 4.9987-.3857.5347-.8718 1.3877-.5266 2.2758.6297.502 1.3464.1571 2.0362.1335 3.1305-.095 6.7156.931 9.0452-.1693.4753-.2258.7719-.6385 1.2315-.9547 2.8522.915 4.8778-.7078 6.5413-1.6313 1.007 1.3547 5.1159 1.4434 5.4549-.32-.6494-1.1007-2.4307-.4799-2.761-1.7013-.3436-1.2632 1.8182-3.0779.4679-4.439-.5269-.3615-1.1042.1975-1.4312-.0118-4.0874-.51185-8.347 1.7134-9.3826 4.7352-.2781.8005-.0793 1.8215.0876 2.522-1.7355.718-3.979-.1464-5.8738-.4035zm9.4021-1.6115c.4406-1.8058 2.0668-2.4985 3.9273-2.9729.5051.0219-.2175.5367-.1694.8388-.1211.3302-.2978.6076-.2681 1.0769-1.1539.3638-1.9606 1.0478-3.4898 1.0572zm48.8705-8.64456c-1.476-.38455-2.087.74274-2.951 1.77854-.698.83329-1.122 1.67342-1.523 1.78982-.983.2917-2.527-.62768-3.367-.3848-.283.0814-.745.4648-.756.9554-.031 1.2843 1.528 1.4801 2.782 1.941-.557 1.2066-1.282 2.6823-1.672 4.3118-.357 1.5017-.758 3.7056.081 5.2849 1.024-.1669 1.266-1.3844 1.609-2.1511 1.185-2.6434 2.298-5.388 3.779-7.6573 2.328-.1575 4.729-.8102 6.57-1.2728.66-.1647 1.601-.0972 1.838-.8272-.477-.5664-1.412-.367-2.177-.374-1.811-.0249-3.767.1038-4.997.0809.431-.91645 1.678-2.02935.784-3.47516zm-69.6981-2.55778c-1.8147-.59223-4.8079.83089-5.774 2.23686-.621.90319-.8361 2.67749.365 3.00708 1.5083.4128 2.6489-1.31763 3.2903-2.01683.9818-1.07048 1.8396-1.80897 2.1187-3.22711zm41.5022 7.51254c.6239-1.2206 1.0409-2.32393 1.7099-3.83098.294-.66397 1.953-3.69631.378-4.07939-.024-.00701-.095-.00941-.12 0-2.6747.75029-4.5908 5.87434-6.2511 7.99867-2.0421-.0492-4.5276-.2123-4.4234 1.2881.0841 1.2238 1.8739 1.465 2.9104 2.0626-.381 1.1933-2.6649 5.9712-.7172 7.2003 2.0426 1.2881 3.1079-1.7127 3.5701-2.975.5788-1.5865 1.0113-2.9962 1.6814-4.1917 1.6107-.1153 3.3898-.6655 4.7088-.685-.353 1.3995-1.133 3.3508-.29 5.1593 1.496.9598 2.611-.0891 3.132-1.0563.827-1.5379.953-4.2773 1.57-5.5118.963-.5778 2.47-.6444 2.704-1.9013-.553-.541-1.412.0156-2.146-.0157.201-1.0076.706-2.07364 1.055-3.11424.344-1.02898 1.019-2.28961.199-3.36083-1.67.28146-2.381 1.79901-3.091 2.97775-.782 1.29955-1.408 2.70142-2.178 3.94702-1.484.0151-2.813.1722-4.4019.0885zm-60.3003 3.0364c.6191-.688 1.7153-.5557 2.6749-.8209 1.6743-.4632 4.2858-1.6788 4.2142-3.8122-.0627-1.86097-1.8615-2.95635-3.9652-3.27229-1.4829 5.07349-3.9745 9.59149-6.3528 14.00349-.7197 1.336-1.4263 3.3031-3.2913 3.4583-.9216-.7947-.6101-1.9452-.4661-2.7654.4189-2.3925 1.5371-4.9846 2.5165-7.0666 1.3772-2.9294 3.2789-5.66903 5.2006-7.76775-.8663.02785-1.4095.14773-2.0489-.25545-.5605-2.45948 2.0207-2.9831 3.7981-3.09302 4.1098-.25674 8.2508 2.0799 8.1481 6.30575-.0845 3.42127-3.7714 5.66597-7.2567 5.94887-.9792.0808-2.4864.2019-3.1714-.8628z"/><path d="m29.0694 11.0692s-.9667-8.02819-7.8623-10.20147c-3.8472-1.213219-5.7646-.8478577-8.119-.435981-2.7662.48292-6.08672 1.659911-8.47256 3.696181-1.62975 1.39012-3.27373 3.4932-3.902682 6.13897-.340835 1.4351-.378611 2.816-.11784 4.3168.095851.5445.865192 1.0506.873232.1627.08683-9.87718 8.21625-11.71329 8.50324-11.77178.10561-.0196.20711-.04003.29841-.06541.1281-.0303.2753-.05342.3938-.03467.0722.01268.1368.1473.0241.20072-.6523.31053-3.18334 1.16868-4.55993 2.37499-1.3935 1.2283-3.22454 3.19818-3.79725 6.60115-.09782.5865-.1924 3.5954.08782 5.7137.16097 1.2185.99347 2.8668 1.54968 3.5771 1.49161 1.9069 4.06873 3.5298 5.4721 4.0269.89408.3165 1.97718.413 2.52868.5412.1946.0464.1708.2859-.0251.3152-.8917.1428-3.04302-.3513-4.82401-1.2253-1.33656-.6565-2.25659-1.56-3.15702-2.5335-.99107-1.0709-1.52023-2.1872-1.88812-2.1118-.60471.1235-.0912 1.4147.17577 1.9135.91439 1.7055 2.74571 3.1872 3.65685 3.6828 2.85072 1.555 5.73303 1.5909 7.04253 1.4805 5.6033-.4725 9.0473-3.1627 10.5743-5.2693.8934-1.2352 2.8947-3.8373 2.8478-7.6406-.0064-.6066.0482-4.8176-1.3339-7.01287-.3112-.50026-1.2558-2.54992-4.8136-4.29877-.2753-.13589-1.4916-.74778-2.4859-.77569-.4206-.01071-1.2648-.04539-1.1859-.54339.0557-.34986 2.1303.11206 2.347.17253 1.4962.41174 3.4102 1.55899 4.734 2.56937 4.1181 3.1425 3.7047 9.80262 3.7047 9.80262-.1759 7.0842-4.3161 10.0826-7.2949 11.8538-.0577.0335-.2712.3064-.2019.412.0702.107.2128.095.3552.082 1.1433-.1143 2.2564-.9644 3.2077-1.7102 4.9128-3.8507 5.1629-6.8566 5.4375-7.9889.3987-1.6467.418-4.9737.2275-6.0151zm-27.43144 6.7671c.02354.4474.0437.7788.11277 1.1057.03368.1594-.07401.5111-.50435.4337-.23977-.0433-.480945-.1372-.663062-.2912-.193675-.162-.295164-.3941-.363528-.6305-.1504017-.5406-.479819-2.1616.525488-2.1393.225814.0049.418222.1027.556362.275.26866.3393.31264.8301.33632 1.2466z" fill="#c8102e"/><path d="m21.5707 12.974c-.1417-.0549-.2697-.1038-.373-.1458-.374-.1525-1.2962-.3954-2.0371-.5903-.4109-.1083-.8359-.2203-.9155-.2528-.0808-.1209-.2591-.8955-.3462-1.2715-.0437-.1943-.0795-.3475-.0992-.4139-.067-.2362-.152-.36844-.3813-.34392-.0009 0-.0175.00184-.0189.00184-.0812.01156-1.1794.29048-2.9793.74888-1.2096.308-2.4598.6262-2.5385.6404-.1012.0138-.1598.0685-.9458 1.2996-.2351.3695-.5286.8294-.5758.8789-.0281.0179-.1945.0951-.3706.1766-.50012.2319-1.43072.6635-2.22727 1.1202-.88098.5057-2.57515 1.5814-2.70201 1.8214-.04778.089-.04877.1806-.00437.2524.06019.0958.19354.1427.35775.1251.03496-.0036.07189-.0103.1091-.0201.16901-.0436 5.5288-1.113 8.6032-1.6208.7682-.1264 1.7383-.2518 2.8824-.3724 2.8158-.2953 5.6521-.4564 5.8168-.4392.1656.0195.3346-.0483.4498-.179.0944-.1067.1439-.2422.1402-.3813-.009-.2756-.6019-.553-1.8444-1.0343z" fill="#fff"/></g></svg>